name ./resultDataOpenSim/trcMotMarkerGrf/sub06/grf-14-08.mot
datacolumns 19
datarows 20
range 0.52400000 0.60000000
endheader

                time	     ground_force_vx	     ground_force_vy	     ground_force_vz	     ground_force_px	     ground_force_py	     ground_force_pz	   l_ground_force_vx	   l_ground_force_vy	   l_ground_force_vz	   l_ground_force_px	   l_ground_force_py	   l_ground_force_pz	     ground_torque_x	     ground_torque_y	     ground_torque_z	   l_ground_torque_x	   l_ground_torque_y	   l_ground_torque_z	
          0.52400000	         79.59859397	        573.34035738	        -25.56721289	         -0.79977097	          0.00000000	          0.09805998	          0.00000000	          0.00000000	          0.00000000	          0.00000000	          0.00000000	          0.00000000	          0.00000000	          1.94009437	          0.00000000	          0.00000000	          0.00000000	          0.00000000	
          0.52800000	         83.12223546	        587.88112088	        -26.76658235	         -0.79920539	          0.00000000	          0.09778465	          0.00000000	          0.00000000	          0.00000000	          0.00000000	          0.00000000	          0.00000000	          0.00000000	          1.93466507	          0.00000000	          0.00000000	          0.00000000	          0.00000000	
          0.53200000	         87.18254884	        602.26043668	        -28.05229894	         -0.79869471	          0.00000000	          0.09753748	          0.00000000	          0.00000000	          0.00000000	          0.00000000	          0.00000000	          0.00000000	          0.00000000	          1.90167619	          0.00000000	          0.00000000	          0.00000000	          0.00000000	
          0.53600000	         91.99470607	        616.29764840	        -29.32414773	         -0.79825489	          0.00000000	          0.09732220	          0.00000000	          0.00000000	          0.00000000	          0.00000000	          0.00000000	          0.00000000	          0.00000000	          1.84265396	          0.00000000	          0.00000000	          0.00000000	          0.00000000	
          0.54000000	         97.62095507	        629.91076095	        -30.48374145	         -0.79788378	          0.00000000	          0.09713307	          0.00000000	          0.00000000	          0.00000000	          0.00000000	          0.00000000	          0.00000000	          0.00000000	          1.76297982	          0.00000000	          0.00000000	          0.00000000	          0.00000000	
          0.54400000	        103.94284332	        643.09633003	        -31.46084642	         -0.79757341	          0.00000000	          0.09694758	          0.00000000	          0.00000000	          0.00000000	          0.00000000	          0.00000000	          0.00000000	          0.00000000	          1.67089882	          0.00000000	          0.00000000	          0.00000000	          0.00000000	
          0.54800000	        110.71099059	        655.79754011	        -32.24322874	         -0.79732016	          0.00000000	          0.09674336	          0.00000000	          0.00000000	          0.00000000	          0.00000000	          0.00000000	          0.00000000	          0.00000000	          1.57556484	          0.00000000	          0.00000000	          0.00000000	          0.00000000	
          0.55200000	        117.63388475	        667.77745515	        -32.87296147	         -0.79709267	          0.00000000	          0.09652758	          0.00000000	          0.00000000	          0.00000000	          0.00000000	          0.00000000	          0.00000000	          0.00000000	          1.48475320	          0.00000000	          0.00000000	          0.00000000	          0.00000000	
          0.55600000	        124.43884222	        678.68169362	        -33.41231778	         -0.79680613	          0.00000000	          0.09633713	          0.00000000	          0.00000000	          0.00000000	          0.00000000	          0.00000000	          0.00000000	          0.00000000	          1.40296286	          0.00000000	          0.00000000	          0.00000000	          0.00000000	
          0.56000000	        130.92087229	        688.28855721	        -33.92326274	         -0.79637900	          0.00000000	          0.09619598	          0.00000000	          0.00000000	          0.00000000	          0.00000000	          0.00000000	          0.00000000	          0.00000000	          1.33038137	          0.00000000	          0.00000000	          0.00000000	          0.00000000	
          0.56400000	        137.00994007	        696.68309666	        -34.47327471	         -0.79582429	          0.00000000	          0.09608008	          0.00000000	          0.00000000	          0.00000000	          0.00000000	          0.00000000	          0.00000000	          0.00000000	          1.26287084	          0.00000000	          0.00000000	          0.00000000	          0.00000000	
          0.56800000	        142.79245318	        704.14147192	        -35.13236429	         -0.79524428	          0.00000000	          0.09594172	          0.00000000	          0.00000000	          0.00000000	          0.00000000	          0.00000000	          0.00000000	          0.00000000	          1.19300356	          0.00000000	          0.00000000	          0.00000000	          0.00000000	
          0.57200000	        148.43816937	        710.84331085	        -35.93885264	         -0.79471927	          0.00000000	          0.09576176	          0.00000000	          0.00000000	          0.00000000	          0.00000000	          0.00000000	          0.00000000	          0.00000000	          1.11210098	          0.00000000	          0.00000000	          0.00000000	          0.00000000	
          0.57600000	        154.10885056	        716.70750553	        -36.86603875	         -0.79423531	          0.00000000	          0.09556506	          0.00000000	          0.00000000	          0.00000000	          0.00000000	          0.00000000	          0.00000000	          0.00000000	          1.01292836	          0.00000000	          0.00000000	          0.00000000	          0.00000000	
          0.58000000	        159.93240442	        721.49797256	        -37.83204100	         -0.79373039	          0.00000000	          0.09539541	          0.00000000	          0.00000000	          0.00000000	          0.00000000	          0.00000000	          0.00000000	          0.00000000	          0.89223755	          0.00000000	          0.00000000	          0.00000000	          0.00000000	
          0.58400000	        166.01387910	        725.06894019	        -38.73510805	         -0.79318776	          0.00000000	          0.09526979	          0.00000000	          0.00000000	          0.00000000	          0.00000000	          0.00000000	          0.00000000	          0.00000000	          0.75213712	          0.00000000	          0.00000000	          0.00000000	          0.00000000	
          0.58800000	        172.42283299	        727.46405220	        -39.46251340	         -0.79268305	          0.00000000	          0.09514778	          0.00000000	          0.00000000	          0.00000000	          0.00000000	          0.00000000	          0.00000000	          0.00000000	          0.59960179	          0.00000000	          0.00000000	          0.00000000	          0.00000000	
          0.59200000	        179.15703519	        728.73979857	        -39.88599694	         -0.79230613	          0.00000000	          0.09497197	          0.00000000	          0.00000000	          0.00000000	          0.00000000	          0.00000000	          0.00000000	          0.00000000	          0.44424567	          0.00000000	          0.00000000	          0.00000000	          0.00000000	
          0.59600000	        186.11986838	        728.73384827	        -39.89156907	         -0.79206059	          0.00000000	          0.09473215	          0.00000000	          0.00000000	          0.00000000	          0.00000000	          0.00000000	          0.00000000	          0.00000000	          0.29532330	          0.00000000	          0.00000000	          0.00000000	          0.00000000	
          0.60000000	        193.14366676	        727.07451350	        -39.42304974	         -0.79185830	          0.00000000	          0.09446284	          0.00000000	          0.00000000	          0.00000000	          0.00000000	          0.00000000	          0.00000000	          0.00000000	          0.15917752	          0.00000000	          0.00000000	          0.00000000	          0.00000000	
